<svg width="21" height="20" viewBox="0 0 21 20" fill="none" xmlns="http://www.w3.org/2000/svg">
<g id="vuesax/linear/lock">
<g id="lock">
<path id="Vector" d="M5.65747 8.33332V6.66666C5.65747 3.90832 6.4908 1.66666 10.6575 1.66666C14.8241 1.66666 15.6575 3.90832 15.6575 6.66666V8.33332" stroke="black" stroke-linecap="round" stroke-linejoin="round"/>
<path id="Vector_2" d="M10.6574 15.4167C11.808 15.4167 12.7408 14.4839 12.7408 13.3333C12.7408 12.1827 11.808 11.25 10.6574 11.25C9.50684 11.25 8.5741 12.1827 8.5741 13.3333C8.5741 14.4839 9.50684 15.4167 10.6574 15.4167Z" stroke="black" stroke-linecap="round" stroke-linejoin="round"/>
<path id="Vector_3" d="M14.8241 18.3333H6.49076C3.15743 18.3333 2.3241 17.5 2.3241 14.1667V12.5C2.3241 9.16668 3.15743 8.33334 6.49076 8.33334H14.8241C18.1574 8.33334 18.9908 9.16668 18.9908 12.5V14.1667C18.9908 17.5 18.1574 18.3333 14.8241 18.3333Z" stroke="black" stroke-linecap="round" stroke-linejoin="round"/>
</g>
</g>
</svg>
