<svg width="144" height="47" viewBox="0 0 144 47" fill="none" xmlns="http://www.w3.org/2000/svg">
<g id="svgg">
<path id="path0" fill-rule="evenodd" clip-rule="evenodd" d="M21.9594 0.574264C20.8923 0.852376 20.4803 1.7174 20.4803 3.67838V4.90514L19.6028 5.05705C18.3578 5.27225 16.7221 5.72528 15.9286 6.07398C15.8176 6.1227 15.4537 6.28074 15.12 6.42498C14.7858 6.56921 14.384 6.75794 14.2267 6.84425C13.4222 7.28578 13.166 7.43462 13.0742 7.51556C13.0189 7.56389 12.9557 7.60379 12.9338 7.60379C12.912 7.60379 12.7611 7.69892 12.5982 7.81515C12.4357 7.93139 12.2536 8.05606 12.1937 8.09173C12.0221 8.19454 11.3317 8.71202 11.1469 8.8762C11.1044 8.91418 10.8685 9.11672 10.6228 9.32655C10.0704 9.79838 9.13767 10.7486 8.67411 11.3113C8.48259 11.5442 8.30913 11.749 8.28806 11.7667C7.80267 12.1825 5.6143 15.9598 5.6143 16.3822C5.6143 16.4171 5.57329 16.5417 5.52324 16.6591C5.00437 17.874 4.42416 20.2546 4.40497 21.247L4.40234 21.3935H3.00036C0.874072 21.3935 0 22.0092 0 23.5072C0 25.0056 0.874072 25.6212 3.00036 25.6212H4.40234L4.40497 25.7678C4.42416 26.7602 5.00437 29.1408 5.52324 30.3557C5.57329 30.4731 5.6143 30.5977 5.6143 30.6326C5.6143 30.8106 6.52336 32.594 7.11598 33.5787C7.29923 33.8833 8.2113 35.1822 8.28806 35.2481C8.30913 35.2658 8.48259 35.4706 8.67411 35.7035C9.13767 36.2662 10.0704 37.2164 10.6228 37.6882C10.8685 37.8981 11.1044 38.1006 11.1469 38.1386C11.3317 38.3028 12.0221 38.8203 12.1937 38.9231C12.2536 38.9587 12.4357 39.0834 12.5982 39.1996C12.7611 39.3159 12.912 39.411 12.9338 39.411C12.9557 39.411 13.0189 39.4505 13.0742 39.4992C13.166 39.5802 13.4222 39.729 14.2267 40.1705C14.384 40.2568 14.7858 40.4456 15.12 40.5898C15.4537 40.734 15.8176 40.8921 15.9286 40.9408C16.7221 41.2895 18.3578 41.7422 19.6028 41.9577L20.4803 42.1096V43.3364C20.4803 45.7485 21.1895 46.6615 22.9211 46.477C24.1786 46.3427 24.6505 45.546 24.6783 43.5079L24.6979 42.1085L25.5716 41.9577C26.0524 41.8749 26.6368 41.7506 26.8701 41.6823C27.1037 41.6137 27.3351 41.5573 27.3841 41.5573C27.7611 41.5573 29.4678 40.8798 30.8845 40.1679C31.669 39.7735 32.3158 39.3983 32.5201 39.2184C32.5623 39.1812 32.6131 39.1505 32.6322 39.1505C32.7011 39.1505 33.9025 38.2533 34.2867 37.915C34.8989 37.376 35.11 37.1757 35.5995 36.6709C36.4529 35.7913 37.243 34.8304 37.6791 34.1422C37.7815 33.9811 37.8793 33.8349 37.8974 33.8169C37.9354 33.7793 38.0358 33.6159 38.2179 33.2968C38.2894 33.1713 38.3997 32.981 38.4629 32.874C38.721 32.4352 39.1624 31.5375 39.3904 30.9875C39.524 30.6656 39.6876 30.277 39.7546 30.124C39.8212 29.9709 39.8758 29.8067 39.8758 29.7588C39.8758 29.7108 39.93 29.5286 39.9958 29.3537C40.2344 28.7234 40.4914 27.6574 40.6757 26.5319C40.7318 26.192 40.7905 25.8483 40.8063 25.7678C40.8353 25.6212 40.8353 25.6212 42.2098 25.6212C44.3639 25.6212 45.1063 25.0796 45.1063 23.5072C45.1063 21.9352 44.3639 21.3935 42.2098 21.3935C40.8353 21.3935 40.8353 21.3936 40.8063 21.247C40.7905 21.1665 40.7318 20.8228 40.6757 20.4829C40.4914 19.3574 40.2344 18.2914 39.9958 17.6611C39.93 17.4862 39.8758 17.304 39.8758 17.256C39.8758 17.2081 39.8212 17.0439 39.7546 16.8908C39.6876 16.7378 39.524 16.3492 39.3904 16.0273C39.1624 15.4772 38.721 14.5796 38.4629 14.1408C38.3997 14.0337 38.2894 13.8435 38.2179 13.718C38.0358 13.3989 37.9354 13.2355 37.8974 13.1979C37.8793 13.1798 37.7815 13.0337 37.6791 12.8726C37.243 12.1844 36.4529 11.2235 35.5995 10.3439C35.11 9.83904 34.8989 9.6388 34.2867 9.09984C33.9025 8.7615 32.7011 7.86387 32.6322 7.86387C32.6131 7.86387 32.5623 7.83357 32.5201 7.79636C32.3158 7.61645 31.669 7.2409 30.8845 6.84694C30.0672 6.4361 29.8716 6.34365 29.253 6.07513C28.9027 5.92284 27.4939 5.45753 27.3841 5.45753C27.3351 5.45753 27.1037 5.40114 26.8701 5.33248C26.6368 5.26419 26.0524 5.13991 25.5716 5.05705L24.6979 4.90629L24.6783 3.50691C24.6599 2.14665 24.6546 2.09755 24.4902 1.75001C24.0356 0.787546 22.9953 0.304207 21.9594 0.574264ZM20.4803 9.3277V10.2706H22.5855H24.6911V9.3277V8.38442H24.9534C25.3823 8.38442 27.004 8.84474 28.2638 9.32386C28.6856 9.48421 30.0157 10.1751 30.3374 10.4006C30.4905 10.508 30.632 10.5959 30.6519 10.5959C30.8359 10.5959 32.5216 11.9995 33.2907 12.7932C33.9563 13.4798 35.0836 14.9183 35.3158 15.3767C35.3703 15.4841 35.4855 15.689 35.572 15.8321C36.2963 17.0297 36.9292 18.7271 37.3217 20.5235C37.5301 21.4776 37.6103 21.3935 36.4943 21.3935H35.5374V23.5072V25.6212H36.4943C37.6103 25.6212 37.5301 25.5372 37.3217 26.4913C36.9292 28.2877 36.2963 29.9851 35.572 31.1827C35.4855 31.3258 35.3703 31.5306 35.3158 31.6381C35.0836 32.0965 33.9563 33.5346 33.2907 34.2216C32.5216 35.0153 30.8359 36.4189 30.6519 36.4189C30.632 36.4189 30.4905 36.5067 30.3374 36.6142C30.0157 36.8397 28.6856 37.5306 28.2638 37.6909C27.004 38.17 25.3823 38.6304 24.9534 38.6304H24.6911V37.6871V36.7442H22.5855H20.4803V37.6871V38.6304L20.273 38.6315C19.3323 38.6361 16.3018 37.554 15.0891 36.7803C14.0182 36.0971 13.7586 35.9145 13.175 35.433C11.6173 34.148 10.2552 32.4724 9.33634 30.7105C9.21932 30.4865 9.09704 30.2525 9.06468 30.1903C9.03194 30.1278 8.94427 29.9306 8.86977 29.7519C8.79527 29.5727 8.69292 29.3437 8.64175 29.2425C8.59096 29.1412 8.54919 29.0154 8.54919 28.9628C8.54919 28.9103 8.50178 28.7733 8.44346 28.659C8.38514 28.5443 8.31478 28.3629 8.28693 28.2558C8.25909 28.1484 8.16163 27.7825 8.07058 27.4426C7.92007 26.8818 7.72403 25.9059 7.72102 25.7026C7.72027 25.6412 7.94679 25.6212 8.64514 25.6212H9.57001V23.5072V21.3935H8.64514C7.94679 21.3935 7.72027 21.3736 7.72102 21.3122C7.72403 21.1089 7.92007 20.133 8.07058 19.5722C8.16163 19.2323 8.25909 18.8664 8.28693 18.759C8.31478 18.6519 8.38514 18.4701 8.44346 18.3558C8.50178 18.2415 8.54919 18.1045 8.54919 18.052C8.54919 17.9994 8.59096 17.8736 8.64175 17.7723C8.69292 17.6711 8.79527 17.4421 8.86977 17.2629C8.94427 17.0842 9.03194 16.887 9.06468 16.8245C9.09704 16.7623 9.21932 16.5283 9.33634 16.3043C10.2552 14.5424 11.6173 12.8668 13.175 11.5818C13.7586 11.1003 14.0182 10.9174 15.0891 10.2345C16.2947 9.46541 19.2062 8.41741 20.209 8.39133L20.4803 8.38442V9.3277ZM21.3735 12.835C20.5563 13.1269 20.3768 13.2443 19.7176 13.9175C18.8296 14.8251 18.4548 15.9844 18.6302 17.2794C19.0697 20.5258 22.7669 21.9129 25.2623 19.7675C26.5326 18.6753 27.0021 16.241 26.1871 14.9724C26.1363 14.8934 26.0946 14.7963 26.0946 14.7568C26.0946 14.6594 25.5802 13.9685 25.3609 13.7714C25.3259 13.7399 25.2062 13.634 25.0952 13.5366C24.2038 12.7517 22.5042 12.4314 21.3735 12.835ZM47.213 22.239V28.8734H50.2329C54.9401 28.8734 56.1223 28.519 57.2883 26.7571C58.3622 25.1352 58.7603 21.1235 58.0258 19.3305C57.9739 19.2043 57.9314 19.0616 57.9314 19.0137C57.9314 18.6773 57.1698 17.4071 56.6927 16.9472C55.4488 15.75 54.779 15.6046 50.5148 15.6046H47.213V22.239ZM52.9315 16.9618C53.9881 17.4394 54.3008 18.6446 54.3004 22.2405C54.3 26.5875 53.8398 27.6121 51.8546 27.6877L51.1048 27.7165V22.239V16.7615L51.8546 16.7876C52.4574 16.8087 52.6681 16.8429 52.9315 16.9618ZM63.291 18.7686C61.4672 19.1479 60.4727 20.0053 59.6908 21.8723C59.1042 23.2732 59.2559 25.8449 60.005 27.1994C61.3979 29.7181 66.5419 29.806 67.6944 27.3306C67.9672 26.7448 68.1595 25.64 67.9962 25.5955C67.9522 25.5836 67.7155 25.5138 67.4698 25.4402C67.2241 25.3665 66.9298 25.2871 66.8158 25.2637L66.6085 25.2208V25.7582C66.6085 27.3935 65.7841 28.2689 64.5217 27.9754C63.6352 27.7694 63.0569 26.4517 63.0385 24.597L63.0358 24.3204H65.5651H68.0944L68.0522 23.719C67.9981 22.9441 67.8942 22.2214 67.7821 21.8366C67.7332 21.669 67.6933 21.5025 67.6933 21.4668C67.6933 21.351 67.2892 20.4829 67.2354 20.4829C67.2064 20.4829 67.1827 20.443 67.1827 20.3943C67.1827 20.3133 66.5032 19.5653 66.286 19.4073C65.6633 18.9538 64.0525 18.6101 63.291 18.7686ZM68.2694 19.1008C68.2705 19.1633 68.3728 19.507 68.4966 19.8649C68.6208 20.2228 68.7461 20.6029 68.7754 20.7104C68.8048 20.8178 68.9207 21.1546 69.0328 21.4584C69.1453 21.7626 69.2612 22.099 69.2906 22.2064C69.3534 22.435 69.7846 23.6979 70.0231 24.353C70.1146 24.6035 70.2158 24.9108 70.2478 25.0359C70.2798 25.1613 70.3802 25.4686 70.4709 25.7191C70.5616 25.9692 70.6609 26.2619 70.6918 26.3693C70.7223 26.4767 70.8381 26.8135 70.9488 27.1173C71.0594 27.4215 71.1738 27.7579 71.2024 27.8653C71.2313 27.9727 71.2904 28.163 71.3337 28.288C71.3773 28.4135 71.4405 28.5965 71.4748 28.6947L71.5369 28.8734H72.7959H74.0549L74.6031 27.1986C74.9048 26.2776 75.1825 25.436 75.2202 25.3286C75.2578 25.2211 75.4155 24.7382 75.5705 24.2552C75.7255 23.7723 75.8835 23.2893 75.9223 23.1823C75.9607 23.0749 76.1187 22.5919 76.2733 22.109C76.6075 21.0656 76.6688 20.878 76.817 20.4503C76.9612 20.0341 77.2633 19.067 77.2633 19.0217C77.2633 19.0026 76.977 18.9868 76.6266 18.9868H75.9896L75.9497 19.1656C75.9102 19.3428 75.8275 19.6086 75.1035 21.8811C73.8355 25.8637 74.0037 25.5384 73.723 24.5479C73.6624 24.3335 73.5631 24.0116 73.5025 23.8325C73.4419 23.6537 73.3272 23.2878 73.2478 23.0196C73.1684 22.7511 73.0664 22.4147 73.0212 22.2716C72.9765 22.1285 72.8188 21.616 72.6709 21.1331C72.5234 20.6501 72.3507 20.0943 72.2879 19.8975C72.2247 19.7007 72.1366 19.4153 72.0922 19.263L72.0113 18.9868H70.1394C68.3984 18.9868 68.2675 18.9949 68.2694 19.1008ZM64.3264 19.9788C64.6707 20.2895 64.8852 21.097 64.983 22.4504L65.0286 23.0845H64.0322H63.0358V22.9234C63.0358 20.8112 63.6631 19.38 64.3264 19.9788ZM20.8867 21.8807C19.5253 22.0307 17.3087 22.7941 17.037 23.2068C17.0182 23.2352 16.9562 23.2851 16.899 23.3177C16.5505 23.5164 15.3762 24.7723 15.3762 24.9461C15.3762 24.9718 15.3363 25.0393 15.2882 25.0957C15.1817 25.22 14.7377 26.1149 14.5593 26.5645C14.0547 27.8373 13.7586 29.7615 13.753 31.8061L13.7492 33.2101L13.9799 33.4974C14.2888 33.8825 14.7384 34.0452 15.3559 33.9949C16.385 33.9117 16.7142 33.4705 16.7172 32.1713C16.7217 30.1731 17.3509 28.028 17.9326 28.028C18.0522 28.028 18.0556 28.0993 18.0556 30.4347V32.8414H22.5855H27.1154V30.4347C27.1154 28.0874 27.1188 28.028 27.2407 28.028C27.8164 28.028 28.3687 29.842 28.4489 31.9956C28.511 33.6658 28.8372 34.0724 30.0503 33.993C31.4116 33.904 31.5783 33.4544 31.3586 30.4673C31.0542 26.3359 29.5243 23.5498 27.0319 22.59C25.1332 21.8585 23.1555 21.6302 20.8867 21.8807Z" fill="#85C8BF"/>
<path id="path1" fill-rule="evenodd" clip-rule="evenodd" d="M135.17 12.0647C134.984 12.5584 135.165 12.7425 135.835 12.7425H136.407V14.5934V16.4439L136.631 16.4869C136.753 16.5103 136.954 16.5103 137.077 16.4869L137.3 16.4439V14.5934V12.7425H137.876C138.532 12.7425 138.635 12.6589 138.55 12.1944L138.507 11.9619H136.858C135.413 11.9619 135.204 11.9746 135.17 12.0647ZM138.936 12.082C138.841 12.1894 138.832 12.4172 138.847 14.3072L138.864 16.4125L139.067 16.4719C139.178 16.5045 139.371 16.5118 139.496 16.488L139.723 16.4443L139.74 14.6575L139.757 12.8703L140.323 14.5612C140.979 16.5222 140.945 16.4577 141.357 16.4961C141.812 16.5387 141.819 16.5275 142.477 14.6371L143.075 12.9217L143.107 14.6671L143.138 16.4128L143.341 16.4719C143.453 16.5045 143.646 16.5118 143.772 16.4876L143.999 16.4439V14.3287C143.999 11.7939 144.049 11.9619 143.307 11.9619C142.577 11.9619 142.599 11.9339 141.992 13.588C141.723 14.3214 141.481 14.9444 141.454 14.9724C141.427 15 141.181 14.392 140.907 13.6202C140.312 11.9439 140.327 11.9619 139.567 11.9619C139.139 11.9619 139.023 11.9838 138.936 12.082ZM126.913 13.7848C126.333 14.1454 126.366 15.6598 126.959 15.9122C127.39 16.096 128.282 15.9997 128.505 15.7454C128.727 15.4918 128.785 14.2789 128.588 13.9923C128.34 13.6317 127.356 13.5097 126.913 13.7848ZM78.3624 14.1738C78.2473 14.2451 78.1254 14.3786 78.0911 14.4703C77.9907 14.7396 78.008 28.6245 78.1088 28.7641C78.309 29.0407 79.4491 29.0652 79.7802 28.7994L79.9431 28.669V25.4866V22.3042L80.5971 22.3065C82.53 22.313 83.1113 22.9257 84.1445 26.044C84.2157 26.2588 84.3632 26.683 84.473 26.9872C84.5825 27.2914 84.7567 27.7871 84.8602 28.0886C85.1443 28.9179 85.3512 29.0514 86.2475 28.9835C87.251 28.9072 87.2484 28.7545 86.1941 26.0117C86.0733 25.698 85.7982 24.9488 85.5172 24.1697C85.1232 23.0768 84.7059 22.4339 84.0023 21.8351L83.8191 21.6789L84.2563 21.4549C84.7812 21.1856 85.5935 20.3969 85.7933 19.9623C86.1677 19.1475 86.1583 19.192 86.1828 18.126C86.2306 16.0787 85.4746 14.9022 83.7348 14.3153C82.8381 14.0126 78.7929 13.906 78.3624 14.1738ZM132.109 15.2839L131.941 15.4185V16.6825V17.9461H131.241C130.433 17.9461 130.388 17.9764 130.312 18.5656C130.205 19.3927 130.434 19.637 131.314 19.637H131.934L131.958 23.1332C131.98 26.4157 131.989 26.6593 132.112 27.1173C132.494 28.5393 133.173 29.0387 134.716 29.0326C136.178 29.0265 136.498 28.8105 136.501 27.8266C136.503 27.0655 136.369 26.9186 135.875 27.1441C135.049 27.5212 134.335 27.3651 134.023 26.7398C133.828 26.3497 133.791 25.7037 133.791 22.6729V19.637H134.937C136.266 19.637 136.376 19.6075 136.478 19.2204C136.569 18.8767 136.523 18.3289 136.385 18.1145L136.276 17.9461H135.034H133.791V16.6825V15.4185L133.623 15.2839C133.481 15.1696 133.365 15.1493 132.866 15.1493C132.367 15.1493 132.252 15.1696 132.109 15.2839ZM82.6417 15.898C83.7348 16.1999 84.2179 16.9 84.2179 18.1828C84.2179 19.9052 83.2844 20.6129 81.0132 20.6129H79.9431V18.1636V15.7143L81.1073 15.7553C81.8455 15.781 82.4073 15.8336 82.6417 15.898ZM91.9058 17.8084C89.6772 18.1456 88.3012 20.3214 88.3012 23.5072C88.3012 26.9481 89.6418 28.8021 92.319 29.0625C93.4327 29.1707 94.6612 29.0019 95.702 28.5972C96.3785 28.3341 96.5313 28.1296 96.5313 27.4871C96.5313 26.6589 96.3518 26.5706 95.4612 26.9608C92.5515 28.2347 90.3052 27.1414 90.2025 24.4018L90.1821 23.8651H93.2991C97.2443 23.8651 96.9711 23.9913 96.8865 22.2064C96.8244 20.8964 96.5189 19.8591 96.0053 19.2143C95.0684 18.0393 93.6325 17.5468 91.9058 17.8084ZM102.337 17.793C99.6724 18.1582 98.2313 21.2861 98.895 25.2637C99.3488 27.9815 101.019 29.3625 103.486 29.0591C105.261 28.8408 106.188 28.0913 106.154 26.9005C106.126 25.9438 105.945 25.7996 105.397 26.3002C103.447 28.0832 101.451 27.5941 100.812 25.177C100.622 24.4539 100.633 22.2056 100.83 21.5562C101.519 19.2895 103.209 18.7647 105.086 20.2339C105.809 20.7997 106.072 20.7303 106.142 19.9554C106.275 18.4927 104.518 17.4942 102.337 17.793ZM111.844 17.8069C111.576 17.8667 111.152 18.1322 110.865 18.4199C110.573 18.7122 110.121 19.2845 110.121 19.362C110.121 19.3973 110.078 19.4625 110.025 19.507C109.941 19.5783 109.93 19.4962 109.93 18.8288V18.0696L109.691 17.9676C109.41 17.8483 108.591 17.8751 108.433 18.009C108.346 18.0823 108.335 18.7064 108.335 23.4078V28.7234L108.469 28.8473C108.658 29.0223 109.69 29.028 109.948 28.8558L110.121 28.7407V25.3067V21.873L110.386 21.4219C110.532 21.1737 110.712 20.8929 110.785 20.7982C110.858 20.7034 110.981 20.5423 111.058 20.4403C111.636 19.6685 112.19 19.479 113.03 19.7655C113.755 20.013 113.822 19.9447 113.822 18.9542C113.822 18.2158 113.771 18.0631 113.479 17.9219C113.224 17.7988 112.202 17.7267 111.844 17.8069ZM115.863 17.9622L115.64 18.0435L115.623 21.7837C115.605 25.7996 115.625 26.1284 115.941 27.0198C116.782 29.3917 119.675 29.8382 121.556 27.8868C121.757 27.6781 121.933 27.5078 121.947 27.5078C121.961 27.5078 121.985 27.7855 121.999 28.125C122.022 28.6425 122.046 28.7576 122.151 28.8374C122.422 29.0449 123.253 29.046 123.563 28.8393L123.711 28.7407V23.4424V18.144L123.538 18.029C123.402 17.9384 123.231 17.9135 122.747 17.9135C121.765 17.9135 121.861 17.4923 121.861 21.804V25.4463L121.689 25.6803C121.594 25.8088 121.458 25.9741 121.386 26.0478C121.313 26.1211 121.179 26.2676 121.088 26.3727C119.901 27.7357 118.405 27.695 117.742 26.2818C117.444 25.6473 117.397 24.9856 117.396 21.3467L117.395 18.0807L117.251 18.0013C117.047 17.8893 116.134 17.8632 115.863 17.9622ZM127.029 17.958C126.906 17.9937 126.784 18.057 126.758 18.0984C126.633 18.2986 126.705 28.6736 126.832 28.8032C127.088 29.0641 128.194 29.0549 128.435 28.7898C128.576 28.6356 128.636 18.4072 128.497 18.1437C128.369 17.9001 127.572 17.7992 127.029 17.958ZM93.7416 19.5335C94.5386 19.9224 94.9954 20.7337 95.1086 21.9624L95.1462 22.369H92.6806H90.2153V22.0545C90.2153 20.1503 92.1583 18.7613 93.7416 19.5335Z" fill="white"/>
</g>
</svg>
