<svg width="21" height="24" viewBox="0 0 21 24" fill="none" xmlns="http://www.w3.org/2000/svg">
<g id="fa:youtube" clip-path="url(#clip0_1_150)">
<path id="Vector" d="M13.0086 16.6607V19.4866C13.0086 20.0848 12.8345 20.3839 12.4863 20.3839C12.2809 20.3839 12.08 20.2857 11.8836 20.0893V16.058C12.08 15.8616 12.2809 15.7634 12.4863 15.7634C12.8345 15.7634 13.0086 16.0625 13.0086 16.6607ZM17.5354 16.6741V17.2902H16.33V16.6741C16.33 16.067 16.5309 15.7634 16.9327 15.7634C17.3345 15.7634 17.5354 16.067 17.5354 16.6741ZM4.59787 13.7545H6.0309V12.4955H1.85233V13.7545H3.25858V21.375H4.59787V13.7545ZM8.45501 21.375H9.64697V14.7589H8.45501V19.8214C8.18715 20.1964 7.93269 20.3839 7.69162 20.3839C7.5309 20.3839 7.43715 20.2902 7.41037 20.1027C7.40144 20.0759 7.39697 19.9196 7.39697 19.6339V14.7589H6.20501V19.9955C6.20501 20.433 6.24072 20.7589 6.31215 20.9732C6.41929 21.3036 6.67822 21.4688 7.08894 21.4688C7.51751 21.4688 7.97287 21.1964 8.45501 20.6518V21.375ZM14.2005 19.3929V16.7545C14.2005 16.1027 14.1604 15.6607 14.08 15.4286C13.9282 14.9286 13.6113 14.6786 13.1291 14.6786C12.6827 14.6786 12.2675 14.9196 11.8836 15.4018V12.4955H10.6916V21.375H11.8836V20.7321C12.2854 21.2232 12.7005 21.4688 13.1291 21.4688C13.6113 21.4688 13.9282 21.2232 14.08 20.7321C14.1604 20.4911 14.2005 20.0446 14.2005 19.3929ZM18.7273 19.2589V19.0848H17.5086C17.5086 19.5402 17.4997 19.8125 17.4818 19.9018C17.4193 20.2232 17.2407 20.3839 16.9461 20.3839C16.5354 20.3839 16.33 20.0759 16.33 19.4598V18.2946H18.7273V16.9152C18.7273 16.2098 18.6068 15.692 18.3657 15.3616C18.0175 14.9062 17.5443 14.6786 16.9461 14.6786C16.3389 14.6786 15.8613 14.9062 15.513 15.3616C15.263 15.692 15.138 16.2098 15.138 16.9152V19.2321C15.138 19.9375 15.2675 20.4554 15.5264 20.7857C15.8747 21.2411 16.3568 21.4688 16.9729 21.4688C17.6157 21.4688 18.0979 21.2321 18.4193 20.7589C18.58 20.5179 18.6738 20.2768 18.7005 20.0357C18.7184 19.9554 18.7273 19.6964 18.7273 19.2589ZM10.5845 7.03125V4.21875C10.5845 3.60268 10.3925 3.29464 10.0086 3.29464C9.62465 3.29464 9.43269 3.60268 9.43269 4.21875V7.03125C9.43269 7.65625 9.62465 7.96875 10.0086 7.96875C10.3925 7.96875 10.5845 7.65625 10.5845 7.03125ZM20.2139 17.0893C20.2139 19.1786 20.0979 20.7411 19.8657 21.7768C19.7407 22.3036 19.4818 22.7455 19.0889 23.1027C18.6961 23.4598 18.2407 23.6652 17.7229 23.7188C16.08 23.9062 13.6023 24 10.2898 24C6.97733 24 4.49965 23.9062 2.85679 23.7188C2.33894 23.6652 1.88135 23.4598 1.48403 23.1027C1.0867 22.7455 0.830008 22.3036 0.713937 21.7768C0.481794 20.7768 0.365723 19.2143 0.365723 17.0893C0.365723 15 0.481794 13.4375 0.713937 12.4018C0.838937 11.875 1.09787 11.433 1.49072 11.0759C1.88358 10.7188 2.3434 10.5089 2.87019 10.4464C4.50412 10.2679 6.97733 10.1786 10.2898 10.1786C13.6023 10.1786 16.08 10.2679 17.7229 10.4464C18.2407 10.5089 18.6983 10.7188 19.0956 11.0759C19.493 11.433 19.7497 11.875 19.8657 12.4018C20.0979 13.4018 20.2139 14.9643 20.2139 17.0893ZM6.84787 0H8.21394L6.5934 5.34375V8.97321H5.25412V5.34375C5.12912 4.68304 4.85679 3.73661 4.43715 2.50446C4.10679 1.58482 3.81662 0.75 3.56662 0H4.98626L5.93715 3.52232L6.84787 0ZM11.8032 4.45982V6.80357C11.8032 7.52679 11.6782 8.05357 11.4282 8.38393C11.0889 8.83929 10.6157 9.06696 10.0086 9.06696C9.41037 9.06696 8.94162 8.83929 8.60233 8.38393C8.35233 8.04464 8.22733 7.51786 8.22733 6.80357V4.45982C8.22733 3.74554 8.35233 3.22321 8.60233 2.89286C8.94162 2.4375 9.41037 2.20982 10.0086 2.20982C10.6157 2.20982 11.0889 2.4375 11.4282 2.89286C11.6782 3.22321 11.8032 3.74554 11.8032 4.45982ZM16.2898 2.29018V8.97321H15.0711V8.23661C14.5979 8.79018 14.138 9.06696 13.6916 9.06696C13.2809 9.06696 13.0175 8.90179 12.9014 8.57143C12.83 8.35714 12.7943 8.02232 12.7943 7.56696V2.29018H14.013V7.20536C14.013 7.5 14.0175 7.65625 14.0264 7.67411C14.0532 7.87054 14.147 7.96875 14.3077 7.96875C14.5488 7.96875 14.8032 7.77679 15.0711 7.39286V2.29018H16.2898Z" fill="white"/>
</g>
<defs>
<clipPath id="clip0_1_150">
<rect width="20.58" height="24" fill="white"/>
</clipPath>
</defs>
</svg>
